<svg width="120" height="120" viewBox="0 0 120 120" fill="none" xmlns="http://www.w3.org/2000/svg">

<!--skills-->

    <g id="gitHub">
		<defs>
			<clipPath id="clip13_2982">
				<rect id="akar-icons:github-fill" rx="0.000000" width="87.000000" height="87.000000" transform="translate(0.500000 0.500000)" fill="white" fill-opacity="0"/>
			</clipPath>
		</defs>
		<rect id="akar-icons:github-fill" rx="0.000000" width="87.000000" height="87.000000" transform="translate(0.500000 0.500000)" fill="#FFFFFF" fill-opacity="0"/>
		<g clip-path="url(#clip13_2982)">
			<path id="Vector" d="M44 0C19.69 0 0 19.69 0 44C0 63.47 12.59 79.91 30.08 85.74C32.28 86.13 33.11 84.81 33.11 83.65C33.11 82.61 33.05 79.14 33.05 75.46C22 77.49 19.14 72.76 18.26 70.29C17.76 69.02 15.62 65.12 13.75 64.07C12.21 63.25 10.01 61.21 13.69 61.16C17.16 61.1 19.63 64.35 20.45 65.67C24.42 72.32 30.74 70.45 33.27 69.3C33.66 66.44 34.81 64.51 36.08 63.41C26.29 62.31 16.06 58.52 16.06 41.69C16.06 36.9 17.76 32.94 20.57 29.86C20.12 28.76 18.59 24.25 21.01 18.2C21.01 18.2 24.69 17.04 33.11 22.71C36.63 21.72 40.37 21.23 44.11 21.23C47.85 21.23 51.59 21.72 55.11 22.71C63.52 16.99 67.21 18.2 67.21 18.2C69.62 24.25 68.08 28.76 67.65 29.86C70.45 32.94 72.16 36.84 72.16 41.69C72.16 58.57 61.87 62.31 52.08 63.41C53.68 64.79 55.05 67.43 55.05 71.55C55.05 77.44 55 82.17 55 83.65C55 84.81 55.82 86.18 58.02 85.74C66.75 82.79 74.34 77.18 79.72 69.69C85.1 62.2 87.99 53.21 88 44C88 19.69 68.31 0 44 0Z" fill="#000000" fill-opacity="1.000000" fill-rule="evenodd"/>
		</g>
	</g>

    <g id="webstorm">
        <defs>
            <linearGradient x1="41.7030965%" y1="1.92488263%" x2="71.8761384%" y2="95.2347418%" id="linearGradient-1">
                <stop stop-color="#00CDD7" offset="28%">

                </stop>
                <stop stop-color="#2086D7" offset="94%">

                </stop>
            </linearGradient>
            <linearGradient x1="22.4892241%" y1="15.1271186%" x2="82.8771552%" y2="84.7627119%" id="linearGradient-2">
                <stop stop-color="#FFF045" offset="14%">

                </stop>
                <stop stop-color="#00CDD7" offset="37%">

                </stop>
            </linearGradient>
            <linearGradient x1="11171%" y1="-27691.7984%" x2="11907%" y2="-28759.6256%" id="linearGradient-3">
                <stop stop-color="#00CDD7" offset="28%">

                </stop>
                <stop stop-color="#2086D7" offset="94%">

                </stop>
            </linearGradient>
        </defs>
        <g>
            <polygon fill="url(#linearGradient-1)" points="34.4 231.2 0 26.8 64 0.4 104.4 24.4 142 4.4 219.6 34.4 176 256">

            </polygon>
            <polygon fill="url(#linearGradient-2)" points="256 86.8 222.8 5.2 163.2 0 70.4 88.8 95.2 203.6 142 236 256 168.4 228 116">

            </polygon>
            <polygon fill="url(#linearGradient-3)" points="204.8 74.4 228 116 256 86.8 235.6 36">

            </polygon>
            <rect fill="#000000" x="48" y="48" width="160" height="160">

            </rect>
            <path d="M63.2,178 L123.2,178 L123.2,188 L63.2,188 L63.2,178 Z M141.6,125.6 L150,115.2 C156,120 162,123.2 169.6,123.2 C175.6,123.2 179.2,120.8 179.2,116.8 C179.2,113.2 176.8,111.2 166,108.4 C152.8,104.8 144.4,101.2 144.4,88 L144.4,87.6 C144.4,75.6 154,67.6 167.2,67.6 C176.04879,67.5627811 184.649333,70.5236236 191.6,76 L184,87.2 C179.170815,83.4261245 173.316089,81.1957528 167.2,80.8 C162,80.8 158.8,83.2 158.8,86.8 C158.8,91.2 161.6,92.8 172.8,95.6 C186,99.2 193.6,104 193.6,115.6 C193.6,128.8 183.6,136.4 169.6,136.4 C159.323641,136.02223 149.468301,132.220884 141.6,125.6 Z M128.8,68.8 L118.8,107.2 L107.6,68.8 L96.4,68.8 L85.2,107.2 L75.2,68.8 L59.6,68.8 L78.8,135.2 L91.2,135.2 L102,96.8 L112.8,135.2 L125.2,135.2 L144.4,68.8 L128.8,68.8 Z" fill="#FFFFFF">

            </path>
        </g>
    </g>

    <g id="git">
        <path d="M2.58536 17.4132C1.80488 16.6327 1.80488 15.3673 2.58536 14.5868L14.5868 2.58536C15.3673 1.80488 16.6327 1.80488 17.4132 2.58536L29.4146 14.5868C30.1951 15.3673 30.1951 16.6327 29.4146 17.4132L17.4132 29.4146C16.6327 30.1951 15.3673 30.1951 14.5868 29.4146L2.58536 17.4132Z" fill="#EE513B"/>
        <path d="M12.1489 5.06152L10.9336 6.27686L14.0725 9.41577C13.9455 9.68819 13.8746 9.99201 13.8746 10.3124C13.8746 11.222 14.4461 11.9981 15.2496 12.3012V19.9798C14.4461 20.2829 13.8746 21.059 13.8746 21.9686C13.8746 23.1422 14.826 24.0936 15.9996 24.0936C17.1732 24.0936 18.1246 23.1422 18.1246 21.9686C18.1246 21.144 17.6549 20.429 16.9684 20.0768V12.3117L19.9689 15.3122C19.8481 15.5791 19.7809 15.8754 19.7809 16.1874C19.7809 17.361 20.7323 18.3124 21.9059 18.3124C23.0795 18.3124 24.0309 17.361 24.0309 16.1874C24.0309 15.0138 23.0795 14.0624 21.9059 14.0624C21.6778 14.0624 21.4582 14.0983 21.2522 14.1648L18.0297 10.9423C18.0914 10.7433 18.1246 10.5317 18.1246 10.3124C18.1246 9.13878 17.1732 8.18738 15.9996 8.18738C15.7803 8.18738 15.5688 8.22061 15.3697 8.2823L12.1489 5.06152Z" fill="white"/>
    </g>

    <g id="react">
        <path d="M0 59.7974C0 69.273 8.84919 78.1189 22.8007 83.1049C20.0147 97.7701 22.3014 109.59 29.9391 114.196C37.79 118.93 49.4858 115.653 60.5867 105.507C71.4076 115.243 82.3439 119.075 89.9746 114.456C97.8178 109.709 100.203 97.087 97.3404 81.964C111.872 76.9405 120 69.3977 120 59.7974C120 50.5414 111.134 42.5338 97.3711 37.5796C100.453 21.8316 97.8416 10.2984 89.8877 5.50237C82.2193 0.878721 71.156 4.9087 60.176 14.9001C48.7532 4.29502 37.799 1.05714 29.8528 5.86712C22.1918 10.5039 20.0057 22.5388 22.8007 37.4756C9.32028 42.39 0 50.5784 0 59.7974Z"/>
        <path d="M94.4565 42.4992C93.351 42.1013 92.2054 41.7248 91.0259 41.3688C91.2198 40.5415 91.3977 39.7249 91.5559 38.9222C94.1528 25.7415 92.4549 15.1231 86.6569 11.627C81.0973 8.27476 72.005 11.77 62.8223 20.1259C61.9393 20.9294 61.0538 21.7801 60.1687 22.6717C59.5789 22.0818 58.9901 21.5118 58.4028 20.9665C48.779 12.0318 39.1327 8.26663 33.3404 11.7728C27.7861 15.1348 26.1413 25.1171 28.4789 37.6085C28.7046 38.8151 28.9685 40.0472 29.2669 41.3C27.9016 41.7052 26.5836 42.1372 25.3226 42.5967C14.0397 46.7099 6.83398 53.1561 6.83398 59.8425C6.83398 66.7483 14.5693 73.675 26.3213 77.875C27.2487 78.2064 28.211 78.5198 29.2028 78.8173C28.8808 80.1722 28.6009 81.4999 28.3658 82.7949C26.1369 95.0696 27.8776 104.816 33.417 108.157C39.1388 111.607 48.7415 108.061 58.0921 99.5143C58.8311 98.8387 59.5729 98.1223 60.3159 97.3714C61.279 98.3411 62.2405 99.2588 63.197 100.12C72.2541 108.269 81.1995 111.56 86.7339 108.21C92.4499 104.75 94.3076 94.2798 91.8958 81.5412C91.7116 80.5683 91.4973 79.5744 91.2566 78.5628C91.9309 78.3544 92.593 78.1392 93.2385 77.9154C105.456 73.6829 113.405 66.8406 113.405 59.8425C113.405 53.1319 105.967 46.6422 94.4565 42.4992Z" fill="#53C1DE"/>
        <path d="M91.8055 73.3972C91.2227 73.599 90.6248 73.7939 90.0155 73.9829C88.6668 69.5184 86.8465 64.771 84.6189 59.8661C86.7446 55.078 88.4946 50.3913 89.8055 45.9557C90.8957 46.2855 91.9538 46.6334 92.9734 47.0006C102.835 50.5504 108.851 55.7988 108.851 59.8429C108.851 64.1505 102.354 69.7425 91.8055 73.3972ZM87.4285 82.466C88.4949 88.0988 88.6473 93.1916 87.9408 97.1728C87.3061 100.75 86.0297 103.135 84.4514 104.09C81.0929 106.123 73.9106 103.481 66.1648 96.5115C65.2769 95.7125 64.3825 94.8595 63.4852 93.9566C66.4881 90.5226 69.4893 86.5305 72.4183 82.0969C77.5702 81.6189 82.4376 80.8374 86.8516 79.7705C87.069 80.6874 87.2621 81.5867 87.4285 82.466ZM43.1651 103.739C39.8838 104.951 37.2704 104.986 35.6906 104.033C32.329 102.006 30.9316 94.1803 32.8378 83.6831C33.0561 82.4809 33.316 81.246 33.6155 79.9837C37.9812 80.9931 42.8129 81.7194 47.9771 82.1572C50.9259 86.4956 54.0138 90.4834 57.1255 93.975C56.4457 94.6613 55.7685 95.3147 55.095 95.9303C50.9603 99.7094 46.8168 102.391 43.1651 103.739ZM27.7925 73.3709C22.596 71.5137 18.3046 69.1001 15.363 66.4662C12.7198 64.0994 11.3853 61.7496 11.3853 59.8429C11.3853 55.7853 17.1707 50.6099 26.8199 47.0922C27.9907 46.6654 29.2163 46.2631 30.4882 45.8853C31.8218 50.421 33.5712 55.1633 35.6823 59.9587C33.5438 64.8253 31.7696 69.6431 30.423 74.2321C29.5163 73.9595 28.6378 73.6727 27.7925 73.3709ZM32.9456 36.6947C30.9428 25.9923 32.2729 17.9189 35.6201 15.893C39.1854 13.7348 47.0693 16.8119 55.3786 24.5266C55.9098 25.0197 56.443 25.5358 56.9778 26.0697C53.8814 29.5461 50.8218 33.5039 47.8992 37.8167C42.8871 38.3025 38.0893 39.0828 33.6782 40.1277C33.4008 38.9612 33.1552 37.8152 32.9456 36.6947ZM78.9154 48.5635C77.8608 46.659 76.7783 44.7995 75.6746 42.9908C79.0749 43.4402 82.3327 44.0369 85.3921 44.767C84.4736 47.8449 83.3288 51.0631 81.9812 54.3622C81.0145 52.4432 79.9921 50.5083 78.9154 48.5635ZM60.169 29.4717C62.2689 31.8505 64.3719 34.5063 66.4403 37.3879C64.3559 37.285 62.2458 37.2314 60.1181 37.2314C58.0106 37.2314 55.916 37.2838 53.8446 37.3849C55.9151 34.5301 58.0363 31.8779 60.169 29.4717ZM41.3025 48.5965C40.2492 50.5063 39.2457 52.4307 38.2942 54.3586C36.9684 51.071 35.8342 47.8382 34.9077 44.7166C37.9484 44.0051 41.1908 43.4234 44.5695 42.9825C43.4503 44.8078 42.3588 46.681 41.3025 48.5961V48.5965ZM44.6668 77.0428C41.176 76.6356 37.8848 76.0838 34.845 75.392C35.7862 72.2147 36.9454 68.9128 38.2993 65.5544C39.2533 67.481 40.2607 69.4061 41.3206 71.3202H41.3208C42.4003 73.2701 43.5187 75.1802 44.6668 77.0428ZM60.2949 90.5496C58.1372 88.1153 55.9849 85.4226 53.8829 82.5261C55.9234 82.6098 58.0038 82.6527 60.1181 82.6527C62.2903 82.6527 64.4377 82.6015 66.5513 82.5031C64.476 85.4517 62.3806 88.1486 60.2949 90.5496ZM82.0246 65.3833C83.4491 68.778 84.6498 72.0626 85.6032 75.1857C82.5133 75.9228 79.1771 76.5164 75.6621 76.9575C76.7684 75.1244 77.8605 73.233 78.9336 71.2874C80.0192 69.319 81.05 67.3477 82.0246 65.3833ZM74.99 68.9093C73.3241 71.9295 71.6138 74.8126 69.8776 77.5341C66.7152 77.7706 63.448 77.8923 60.1181 77.8923C56.8017 77.8923 53.5758 77.7846 50.4693 77.5738C48.6631 74.8166 46.9156 71.9249 45.2603 68.9352H45.2607C43.6098 65.9537 42.0903 62.947 40.7135 59.9571C42.09 56.9603 43.6054 53.9502 45.2469 50.974L45.2465 50.9746C46.8923 47.9905 48.6244 45.1129 50.4139 42.3729C53.5834 42.1224 56.8334 41.9917 60.118 41.9917H60.1181C63.4175 41.9917 66.6717 42.1234 69.8402 42.3761C71.6024 45.096 73.3228 47.9643 74.975 50.9488C76.646 53.9669 78.1811 56.9569 79.5692 59.8895C78.1852 62.8724 76.6536 65.8926 74.99 68.9093ZM84.3816 15.7513C87.9503 17.9032 89.3381 26.5816 87.0959 37.9617C86.9529 38.6879 86.7919 39.4275 86.617 40.1771C82.1956 39.1104 77.3944 38.3166 72.3677 37.8235C69.4394 33.4632 66.4048 29.4993 63.3589 26.0675C64.1778 25.2438 64.9956 24.4583 65.8099 23.7171C73.6777 16.5578 81.0312 13.7312 84.3816 15.7513Z" fill="#F9FAFF"/>
        <path d="M60.1185 49.8923C65.3741 49.8923 69.6349 54.3472 69.6349 59.8428C69.6349 65.3381 65.3741 69.7932 60.1185 69.7932C54.8628 69.7932 50.6021 65.3381 50.6021 59.8428C50.6021 54.3472 54.8628 49.8923 60.1185 49.8923Z" fill="#53C1DE"/>
    </g>

    <g id="sass">
        <defs>
            <clipPath id="clip13_2988">
                <rect id="logos:sass" rx="0.000000" width="116.000000" height="86.000000" transform="translate(0.500000 0.500000)" fill="white" fill-opacity="0"/>
            </clipPath>
        </defs>
        <rect id="logos:sass" rx="0.000000" width="116.000000" height="86.000000" transform="translate(0.500000 0.500000)" fill="#FFFFFF" fill-opacity="0"/>
        <g clip-path="url(#clip13_2988)">
            <path id="Vector" d="M100.67 50.07C96.6 50.09 93.06 51.06 90.1 52.5C89.01 50.37 87.92 48.47 87.73 47.07C87.52 45.44 87.26 44.45 87.52 42.51C87.78 40.56 88.93 37.8 88.9 37.58C88.88 37.37 88.65 36.38 86.3 36.36C83.96 36.34 81.94 36.8 81.7 37.41C81.47 38.03 81.02 39.42 80.72 40.86C80.32 42.97 76.03 50.51 73.58 54.47C72.79 52.92 72.11 51.57 71.96 50.49C71.75 48.87 71.49 47.87 71.75 45.93C72.01 43.99 73.16 41.22 73.14 41.01C73.11 40.8 72.88 39.8 70.54 39.78C68.19 39.76 66.17 40.23 65.93 40.84C65.7 41.45 65.44 42.89 64.95 44.28C64.46 45.68 58.77 58.27 57.28 61.52C56.68 62.84 56.05 64.14 55.38 65.43C55.38 65.43 55.36 65.5 55.3 65.6C55.09 66.01 54.88 66.41 54.66 66.81L54.66 66.83C54.34 67.4 54 67.93 53.83 67.93C53.7 67.93 53.47 66.4 53.87 64.33C54.72 59.96 56.75 53.16 56.73 52.92C56.73 52.8 57.11 51.61 55.41 51C53.74 50.39 53.15 51.4 53 51.4C52.85 51.4 52.74 51.76 52.74 51.76C52.74 51.76 54.6 44.11 49.2 44.11C45.84 44.11 41.19 47.77 38.89 51.06C36.27 52.48 33.66 53.89 31.05 55.31C29.79 56.01 28.49 56.71 27.28 57.36C27.19 57.28 27.1 57.17 27.02 57.09C20.5 50.18 8.44 45.3 8.95 36.02C9.14 32.64 10.31 23.77 32.11 12.99C50.06 4.22 64.33 6.65 66.81 12.04C70.34 19.73 59.16 34.01 40.62 36.08C33.54 36.87 29.83 34.16 28.9 33.15C27.91 32.09 27.77 32.03 27.4 32.24C26.81 32.56 27.19 33.51 27.4 34.06C27.96 35.49 30.24 38.03 34.09 39.27C37.5 40.37 45.79 40.99 55.83 37.14C67.06 32.83 75.84 20.85 73.26 10.81C70.68 0.63 53.64 -2.73 37.5 2.95C27.91 6.33 17.52 11.66 10.04 18.59C1.15 26.83 -0.26 33.99 0.32 36.99C2.38 47.64 17.2 54.57 23.12 59.71C22.82 59.88 22.54 60.02 22.31 60.15C19.35 61.61 8.05 67.46 5.24 73.65C2.04 80.67 5.75 85.7 8.2 86.37C15.81 88.46 23.63 84.7 27.83 78.49C32.03 72.28 31.52 64.21 29.58 60.51C29.56 60.47 29.53 60.42 29.49 60.38C30.26 59.94 31.05 59.47 31.81 59.03C33.22 58.2 34.65 57.41 36.1 56.64C35.37 58.61 34.84 60.95 34.58 64.33C34.26 68.31 35.91 73.46 38.06 75.49C39.02 76.38 40.15 76.4 40.87 76.4C43.39 76.4 44.52 74.33 45.77 71.88C47.31 68.88 48.69 65.39 48.69 65.39C48.69 65.39 46.97 74.81 51.65 74.81C53.36 74.81 55.09 72.62 55.85 71.5L55.85 71.52C55.85 71.52 55.9 71.45 55.98 71.31C56.15 71.03 56.26 70.86 56.26 70.86L56.26 70.82C56.94 69.64 58.47 66.95 60.75 62.5C63.69 56.75 66.53 49.56 66.53 49.56C66.53 49.56 66.79 51.32 67.66 54.23C68.17 55.95 69.24 57.83 70.09 59.64C69.41 60.59 68.98 61.12 68.98 61.12L69 61.14C68.45 61.86 67.85 62.64 67.19 63.4C64.87 66.15 62.1 69.3 61.71 70.21C61.26 71.29 61.37 72.07 62.22 72.7C62.84 73.17 63.95 73.23 65.08 73.17C67.17 73.02 68.64 72.51 69.36 72.19C70.49 71.79 71.81 71.18 73.05 70.27C75.33 68.6 76.72 66.21 76.59 63.07C76.52 61.33 75.95 59.6 75.24 57.97C75.46 57.68 75.65 57.38 75.86 57.09C79.46 51.87 82.26 46.14 82.26 46.14C82.26 46.14 82.51 47.89 83.39 50.81C83.81 52.29 84.69 53.9 85.45 55.46C82.06 58.19 79.98 61.35 79.23 63.43C77.89 67.27 78.93 69 80.91 69.4C81.81 69.6 83.09 69.17 84.02 68.77C85.22 68.39 86.62 67.74 87.97 66.76C90.25 65.09 92.44 62.77 92.31 59.62C92.25 58.19 91.87 56.77 91.33 55.4C94.21 54.21 97.92 53.56 102.65 54.11C112.79 55.29 114.8 61.57 114.41 64.21C114.03 66.85 111.9 68.29 111.2 68.73C110.49 69.17 110.26 69.32 110.32 69.64C110.41 70.1 110.75 70.08 111.35 70C112.18 69.85 116.67 67.86 116.86 63C117.18 56.79 111.22 50.01 100.67 50.07ZM22.42 76.23C19.05 79.86 14.36 81.24 12.34 80.08C10.16 78.83 11.02 73.46 15.15 69.62C17.66 67.27 20.9 65.09 23.06 63.76C23.55 63.47 24.27 63.05 25.14 62.52C25.29 62.43 25.38 62.39 25.38 62.39L25.89 62.07C27.4 67.57 25.95 72.41 22.42 76.23ZM46.92 59.71C45.75 62.54 43.3 69.79 41.81 69.38C40.53 69.05 39.74 63.55 41.55 58.12C42.47 55.4 44.41 52.14 45.54 50.87C47.37 48.85 49.4 48.17 49.89 48.99C50.5 50.07 47.65 57.93 46.92 59.71ZM67.15 69.3C66.66 69.55 66.19 69.72 65.97 69.6C65.83 69.51 66.19 69.17 66.19 69.17C66.19 69.17 68.72 66.47 69.73 65.24C70.3 64.52 70.98 63.68 71.71 62.73L71.71 63C71.71 66.24 68.55 68.41 67.15 69.3L67.15 69.3ZM82.75 65.77C82.38 65.52 82.45 64.67 83.66 62.03C84.13 61 85.24 59.26 87.14 57.59C87.35 58.27 87.5 58.92 87.48 59.54C87.46 63.62 84.52 65.14 82.75 65.77Z" fill="#CD6799" fill-opacity="1.000000" fill-rule="nonzero"/>
        </g>
    </g>

    <g id="css">
        <defs>
            <clipPath id="clip13_2967">
                <rect id="vscode-icons:file-type-css" rx="0.000000" width="119.000000" height="118.000000" transform="translate(0.500000 0.500000)" fill="white" fill-opacity="0"/>
            </clipPath>
        </defs>
        <rect id="vscode-icons:file-type-css" rx="0.000000" width="119.000000" height="118.000000" transform="translate(0.500000 0.500000)" fill="#FFFFFF" fill-opacity="0"/>
        <g clip-path="url(#clip13_2967)">
            <path id="Vector" d="M22.13 101.15L13.71 7.43L106.29 7.43L97.85 101.13L59.94 111.56L22.13 101.15Z" fill="#1572B6" fill-opacity="1.000000" fill-rule="nonzero"/>
            <path id="Vector" d="M60 103.59L90.63 95.17L97.84 15.1L60 15.1L60 103.59Z" fill="#33A9DC" fill-opacity="1.000000" fill-rule="nonzero"/>
            <path id="Vector" d="M60 49.05L75.33 49.05L76.39 37.28L60 37.28L60 25.78L89.06 25.78L88.78 28.87L85.93 60.54L60 60.54L60 49.05Z" fill="#FFFFFF" fill-opacity="1.000000" fill-rule="nonzero"/>
            <path id="Vector" d="M60.07 78.9L60.01 78.91L47.11 75.46L46.28 66.29L34.65 66.29L36.27 84.34L60.01 90.87L60.07 90.86L60.07 78.9Z" fill="#EBEBEB" fill-opacity="1.000000" fill-rule="nonzero"/>
            <path id="Vector" d="M74.35 60.06L72.95 75.45L60.03 78.91L60.03 90.87L83.79 84.34L83.96 82.4L85.98 60.06L74.35 60.06Z" fill="#FFFFFF" fill-opacity="1.000000" fill-rule="nonzero"/>
            <path id="Vector" d="M60.04 25.78L60.04 37.28L32.04 37.28L31.81 34.69L31.28 28.87L31 25.78L60.04 25.78ZM60 49.05L60 60.54L47.25 60.54L47.02 57.96L46.49 52.13L46.21 49.05L60 49.05Z" fill="#EBEBEB" fill-opacity="1.000000" fill-rule="nonzero"/>
        </g>
    </g>

    <g id="html">
        <defs>
            <clipPath id="clip13_2974">
                <rect id="vscode-icons:file-type-html" rx="0.000000" width="119.000000" height="119.000000" transform="translate(0.500000 0.500000)" fill="white" fill-opacity="0"/>
            </clipPath>
        </defs>
        <rect id="vscode-icons:file-type-html" rx="0.000000" width="119.000000" height="119.000000" transform="translate(0.500000 0.500000)" fill="#FFFFFF" fill-opacity="0"/>
        <g clip-path="url(#clip13_2974)">
            <path id="Vector" d="M22.13 102L13.7 7.5L106.29 7.5L97.85 101.98L59.94 112.5L22.13 102Z" fill="#E44F26" fill-opacity="1.000000" fill-rule="nonzero"/>
            <path id="Vector" d="M60 104.46L90.63 95.97L97.84 15.22L60 15.22L60 104.46Z" fill="#F1662A" fill-opacity="1.000000" fill-rule="nonzero"/>
            <path id="Vector" d="M60 50.27L44.66 50.27L43.6 38.4L60 38.4L60 26.81L30.93 26.81L31.21 29.92L34.06 61.86L60 61.86L60 50.27ZM60 80.37L59.94 80.39L47.04 76.9L46.21 67.66L34.57 67.66L36.2 85.86L59.94 92.45L60 92.43L60 80.37Z" fill="#EBEBEB" fill-opacity="1.000000" fill-rule="nonzero"/>
            <path id="Vector" d="M59.95 50.27L59.95 61.86L74.23 61.86L72.88 76.9L59.95 80.38L59.95 92.44L83.72 85.86L83.89 83.9L86.61 53.38L86.9 50.27L59.95 50.27ZM59.95 26.81L59.95 38.4L87.95 38.4L88.18 35.8L88.71 29.92L88.99 26.81L59.95 26.81Z" fill="#FFFFFF" fill-opacity="1.000000" fill-rule="nonzero"/>
        </g>
    </g>

    <g id="js">
        <path d="M2.25488 0H117.745V120H2.25488V0Z" fill="#F7DF1E"/>
        <path d="M32.6203 100.28L41.4584 94.7229C43.1635 97.8641 44.7145 100.522 48.435 100.522C52.0012 100.522 54.2496 99.0723 54.2496 93.4342V55.0913H65.1028V93.5936C65.1028 105.274 58.5136 110.59 48.9002 110.59C40.2181 110.59 35.1783 105.918 32.6201 100.28" fill="#1F2626"/>
        <path d="M71 99.0724L79.837 93.756C82.1633 97.7035 85.1868 100.603 90.5357 100.603C95.0326 100.603 97.9003 98.2669 97.9003 95.0448C97.9003 91.1783 94.9545 89.8088 89.9929 87.5541L87.2803 86.345C79.4499 82.8819 74.2555 78.5322 74.2555 69.3492C74.2555 60.8913 80.4574 54.4469 90.1483 54.4469C97.048 54.4469 102.01 56.9442 105.575 63.469L97.125 69.1073C95.2644 65.6438 93.2493 64.2747 90.1485 64.2747C86.9699 64.2747 84.9542 66.369 84.9542 69.1073C84.9542 72.4905 86.9699 73.8602 91.6209 75.9547L94.334 77.1629C103.56 81.2713 108.754 85.4595 108.754 94.8836C108.754 105.034 101.079 110.591 90.7685 110.591C80.6904 110.591 74.1782 105.597 71.0002 99.0724" fill="#1F2626"/>
    </g>

    <g id="ts">
        <path d="M0 60V120H60H120V60V0H60H0V60Z" fill="#007ACC"/>
        <path d="M26.5375 60.3979L26.4994 65.3122H34.309H42.1185L42.1185 87.5026V109.693H47.6423H53.1661V87.5026L53.1661 65.3122H60.9756H68.7852V60.4931C68.7852 57.8264 68.728 55.5979 68.6518 55.5407C68.5947 55.4645 59.0899 55.4264 47.5661 55.4455L26.5947 55.5026L26.5375 60.3979Z" fill="white"/>
        <path d="M96.8265 55.3636C99.8741 56.1255 102.198 57.4779 104.331 59.6874C105.436 60.8684 107.074 63.0208 107.207 63.535C107.246 63.6874 102.026 67.1922 98.8646 69.1541C98.7503 69.2303 98.2931 68.7351 97.7789 67.9731C96.236 65.7255 94.6169 64.7541 92.1408 64.5827C88.5027 64.335 86.1598 66.2398 86.1789 69.4208C86.1789 70.3541 86.3122 70.9065 86.6931 71.6684C87.4931 73.3255 88.9789 74.316 93.6455 76.3351C102.236 80.0303 105.912 82.4684 108.198 85.935C110.75 89.8017 111.322 95.9731 109.588 100.564C107.684 105.554 102.96 108.945 96.3122 110.068C94.255 110.43 89.3789 110.373 87.1693 109.973C82.3503 109.116 77.7789 106.735 74.9598 103.611C73.855 102.392 71.7027 99.2112 71.836 98.9827C71.8931 98.9065 72.3884 98.6017 72.9408 98.2779C73.4741 97.9731 75.4931 96.8112 77.3979 95.7065L80.8455 93.7065L81.5693 94.7731C82.5789 96.316 84.7884 98.4303 86.1217 99.135C89.9503 101.154 95.2074 100.868 97.7979 98.5446C98.9027 97.535 99.3598 96.4874 99.3598 94.9446C99.3598 93.5541 99.1884 92.9446 98.4646 91.897C97.5312 90.5636 95.6265 89.4398 90.2169 87.097C84.0265 84.4303 81.3598 82.7731 78.9217 80.1446C77.5122 78.6208 76.1789 76.1827 75.6265 74.1446C75.1693 72.4493 75.055 68.2017 75.4169 66.4874C76.6931 60.5065 81.2074 56.335 87.7217 55.097C89.836 54.697 94.7503 54.8493 96.8265 55.3636Z" fill="white"/>
    </g>

    <g id="vue">
        <title>file_type_vue</title><path d="M24.4,3.925H30L16,28.075,2,3.925H12.71L16,9.525l3.22-5.6Z" style="fill:#41b883"/><path d="M2,3.925l14,24.15L30,3.925H24.4L16,18.415,7.53,3.925Z" style="fill:#41b883"/><path d="M7.53,3.925,16,18.485l8.4-14.56H19.22L16,9.525l-3.29-5.6Z" style="fill:#35495e"/>
    </g>

    <g id="redux">
        <g clip-path="url(#clip0_1_2440)">
            <path d="M83.1473 82.6013C87.5756 82.1428 90.9352 78.3253 90.7823 73.7438C90.63 69.1627 86.812 65.4975 82.2309 65.4975H81.9258C77.1914 65.6503 73.5267 69.6207 73.6795 74.3546C73.8323 76.6453 74.7483 78.6305 76.1227 80.0049C70.9308 90.2368 62.9902 97.7194 51.0792 103.98C42.9858 108.256 34.5872 109.784 26.1886 108.715C19.3167 107.798 13.972 104.745 10.612 99.7046C5.72578 92.2219 5.26781 84.128 9.39093 76.0346C12.2925 70.2314 16.8731 65.9555 19.7747 63.8175C19.1639 61.8324 18.2475 58.4728 17.7895 56.0297C-4.35282 72.0643 -2.06204 93.7491 4.65703 103.98C9.69609 111.616 19.9275 116.35 31.2276 116.35C34.2816 116.35 37.3355 116.045 40.3898 115.282C59.9362 111.464 74.7487 99.8574 83.1473 82.6013ZM110.024 63.6652C98.4178 50.0738 81.315 42.5911 61.7686 42.5911H59.3255C57.9511 39.8424 55.0495 38.0096 51.8428 38.0096H51.5372C46.8037 38.1624 43.1391 42.1327 43.2914 46.8671C43.4442 51.4482 47.2617 55.1133 51.8428 55.1133H52.148C55.5075 54.9605 58.4091 52.8225 59.6306 49.921H62.3794C73.9852 49.921 84.9797 53.2805 94.9059 59.8472C102.541 64.8868 108.038 71.4535 111.092 79.3941C113.688 85.808 113.535 92.0691 110.787 97.4143C106.511 105.508 99.3342 109.936 89.8664 109.936C83.7581 109.936 77.9555 108.104 74.9011 106.729C73.2216 108.256 70.1672 110.7 68.0292 112.227C74.5959 115.281 81.315 116.961 87.7284 116.961C102.388 116.961 113.23 108.867 117.353 100.774C121.782 91.9163 121.476 76.6453 110.024 63.6652ZM32.4492 85.1968C32.602 89.7783 36.4195 93.443 41.0006 93.443H41.3062C46.0401 93.2907 49.7048 89.3199 49.552 84.586C49.3997 80.0044 45.5817 76.3397 41.0006 76.3397H40.6955C40.3898 76.3397 39.9314 76.3397 39.6267 76.4921C33.3656 66.1078 30.7697 54.8077 31.6861 42.5907C32.2964 33.428 35.3508 25.4869 40.6955 18.9202C45.1237 13.2699 53.6751 10.5211 59.4783 10.3688C75.6647 10.0632 82.5361 30.2208 82.9945 38.3147C84.9797 38.7727 88.3392 39.8419 90.63 40.6055C88.7972 15.8668 73.5267 3.03894 58.8675 3.03894C45.1237 3.03894 32.4492 12.9652 27.4097 27.6253C20.3855 47.1722 24.9666 65.9555 33.518 80.7685C32.7548 81.8372 32.2964 83.5172 32.4492 85.1972V85.1968Z" fill="#764ABC"/>
        </g>
        <defs>
            <clipPath id="clip0_1_2440">
                <rect width="120" height="120" fill="white"/>
            </clipPath>
        </defs>
    </g>

    <g id="styledComponent">
        <g clip-path="url(#clip0_1_2427)">
            <path d="M68.7673 118.279C68.9473 117.872 69.4015 117.589 69.7315 117.246C74.7666 111.967 79.8446 106.735 84.8111 101.391C86.3653 99.9558 87.5662 98.1804 88.32 96.2036C89.0739 94.2269 89.3601 92.1026 89.1563 89.9968C89.0004 89.0951 88.7958 88.2025 88.5435 87.3229C87.1894 88.6084 85.9296 89.7783 84.6611 90.9567C82.6899 92.7908 80.7273 94.6334 78.739 96.4461C77.5665 97.6415 76.059 98.4531 74.4156 98.7737C72.7721 99.0943 71.0701 98.9087 69.5344 98.2416C67.9797 97.6705 66.627 96.6553 65.6443 95.3221C64.6616 93.9889 64.092 92.3965 64.0064 90.7425C63.9604 90.5297 63.8988 90.3206 63.8222 90.1168C62.3095 91.4024 60.8611 92.5851 59.4256 93.8021L29.5877 119.085C29.382 119.261 29.1591 119.479 28.9663 119.65H68.7459L68.6859 119.612C68.4716 119.462 68.583 118.673 68.7673 118.279Z" fill="#FFCEBF"/>
            <path d="M27.1434 118.279C27.4972 117.818 27.9243 117.418 28.4075 117.096L69.6997 82.0642C72.5165 79.6731 75.3205 77.2691 78.1116 74.8522C78.4565 74.6118 78.7267 74.2791 78.8915 73.8924C79.5591 70.9831 79.6537 67.9717 79.17 65.0263C78.7415 65.3262 78.5101 65.4548 78.313 65.6648C74.932 68.6901 71.5681 71.7412 68.1699 74.7494C67.0442 75.8824 65.5882 76.6292 64.0113 76.8825C62.4344 77.1359 60.8177 76.8826 59.3938 76.1592C57.9411 75.4734 56.7253 74.3709 55.9012 72.992C55.077 71.6131 54.6818 70.0201 54.7658 68.4159V67.0275C54.1444 67.4817 53.6902 67.7859 53.266 68.1287C36.7394 81.3615 20.2156 94.5842 3.69472 107.797C2.94909 108.393 2.05777 109.721 1.08074 108.431C0.103713 107.141 1.59068 106.61 2.34059 106.01C19.9528 91.8774 37.5736 77.7576 55.2029 63.6507C58.074 61.3496 58.2625 60.3854 56.3942 56.7301L55.28 57.7757C52.2247 60.6168 49.135 63.4193 46.1268 66.3075C44.8929 67.4978 43.3474 68.3148 41.6689 68.6641C39.9904 69.0135 38.2473 68.8809 36.6409 68.2818C35.0345 67.6827 33.6304 66.6415 32.5905 65.2784C31.5507 63.9153 30.9176 62.2858 30.7644 60.5782C30.1944 61.0067 29.7016 61.3196 29.2345 61.6838L3.09479 81.9443C2.64395 82.3864 2.1298 82.7591 1.56925 83.0498C1.14619 83.1777 0.69189 83.155 0.283691 82.9856V119.671H27.0919C26.9923 119.451 26.945 119.21 26.954 118.969C26.9629 118.727 27.0277 118.491 27.1434 118.279Z" fill="#FFCEBF"/>
            <path d="M99.5652 1.82096C98.8367 4.20782 98.1297 6.59897 97.4912 9.01154C96.9014 10.7164 96.97 12.5802 97.6836 14.2371C98.3971 15.8941 99.704 17.2246 101.348 17.9676C106.376 20.6107 112.042 21.798 117.709 21.3958V2.22806C117.646 1.80781 117.669 1.37914 117.777 0.968207C117.897 0.73576 118.049 0.520916 118.227 0.329712H99.5481C99.8352 0.663958 99.7366 1.25103 99.5652 1.82096Z" fill="#FF6196"/>
            <path d="M62.0512 42.9976C61.9624 45.137 61.214 47.1966 59.9086 48.894C55.2421 54.9179 49.883 60.3719 43.9419 65.1435C42.9839 66.0304 41.7695 66.591 40.4731 66.745C39.1767 66.8989 37.8648 66.6383 36.7256 66.0005C35.5918 65.5161 34.6358 64.6925 33.989 63.6428C33.3421 62.5932 33.0362 61.369 33.1132 60.1384C33.2505 58.627 33.878 57.202 34.9002 56.0803C41.5437 49.7455 48.7416 44.019 56.4076 38.9695C56.9097 38.5758 57.5228 38.3499 58.1603 38.3237C58.7978 38.2976 59.4274 38.4725 59.96 38.8238C60.6601 39.2585 61.2261 39.8786 61.5952 40.6153C61.9643 41.352 62.1222 42.1766 62.0512 42.9976Z" fill="#FF87AF"/>
            <path d="M56.9126 68.97C56.8131 68.0228 56.9347 67.0654 57.2678 66.1731C57.6009 65.2809 58.1365 64.478 58.8324 63.8277C65.3372 57.8281 72.3163 52.3638 79.7013 47.4883C79.9241 47.3468 80.1298 47.2054 80.3741 47.0597C81.0192 46.594 81.8008 46.356 82.5959 46.3832C83.3911 46.4103 84.1546 46.7011 84.7664 47.2097C85.3584 47.7112 85.7772 48.3865 85.9634 49.1396C86.1496 49.8928 86.0936 50.6854 85.8034 51.4049C84.8691 54.5168 83.1448 57.3337 80.7983 59.5811C76.0329 64.2758 71.1753 68.8762 66.2286 73.3795C65.4836 74.1456 64.5051 74.6422 63.4469 74.7911C62.3888 74.9401 61.3111 74.7329 60.3836 74.2022C59.409 73.6958 58.5791 72.9499 57.9719 72.0347C57.3648 71.1194 57.0002 70.0648 56.9126 68.97Z" fill="#FF87AF"/>
            <path d="M87.8344 71.8015C86.6346 73.0871 85.4004 74.3126 84.2477 75.6282C83.9011 76.1367 83.6136 76.683 83.3907 77.2566C84.0249 77.4451 84.7662 77.9422 85.2804 77.7665C87.8987 76.888 90.4527 75.8339 93.3281 74.724C92.7024 76.1638 92.231 77.4922 91.5668 78.7092C88.8305 83.3078 85.4038 87.4587 81.4066 91.0164C79.8868 92.4819 78.3084 93.8832 76.6715 95.2201C75.8046 95.9395 74.7622 96.4157 73.6509 96.6001C72.5396 96.7844 71.3992 96.6702 70.3465 96.2692C69.2938 95.8681 68.3665 95.1947 67.6595 94.3176C66.9525 93.4406 66.4912 92.3916 66.3227 91.2778C66.254 90.6585 66.3087 90.0317 66.4838 89.4337C66.6589 88.8357 66.9507 88.2784 67.3426 87.7939C73.174 81.4614 79.8384 75.9503 87.1531 71.4115C87.242 71.3771 87.3363 71.3582 87.4316 71.3558L87.8344 71.8015Z" fill="#FF87AF"/>
            <path d="M97.6724 54.7335L105.004 22.1659L110.147 23.37L107.494 31.4305C105.017 38.9296 102.51 46.4287 100.093 53.9364C99.6221 55.3248 99.0051 55.5819 97.6724 54.7335Z" fill="#FF6196"/>
            <path d="M89.3857 73.8885C90.1614 70.9274 90.9327 68.1892 91.5841 65.421C92.2189 62.7364 93.4263 60.2207 95.1236 58.0461C96.1649 56.6791 97.3348 57.2234 98.5304 57.519C99.636 57.789 99.9145 58.5989 99.9616 59.6616C100.136 62.6005 99.241 65.5031 97.4419 67.8335C95.3002 70.4887 92.5317 72.5695 89.3857 73.8885Z" fill="#FF6196"/>
            <path d="M119.944 3.83936C120.008 2.88498 119.983 1.92674 119.871 0.976845C119.783 0.711516 119.607 0.483621 119.374 0.329779C119.184 0.175101 118.961 0.0652523 118.723 0.00838844C118.585 -0.0173228 118.393 0.124089 118.208 0.325493C118.03 0.516698 117.878 0.731542 117.758 0.96399C117.65 1.37492 117.627 1.80359 117.69 2.22384V21.3873C112.023 21.7895 106.357 20.6022 101.329 17.9591C99.685 17.2161 98.3781 15.8856 97.6646 14.2286C96.951 12.5717 96.8824 10.7079 97.4722 9.00304C98.1107 6.59046 98.8178 4.19932 99.5462 1.81246C99.7177 1.24253 99.8162 0.655454 99.5462 0.321208C99.3961 0.158494 99.1888 0.0602123 98.9677 0.0469556C98.6847 0.0500088 98.4105 0.146413 98.1878 0.321208C97.8674 0.512888 97.6121 0.796593 97.4551 1.1354C96.598 3.70652 95.8438 6.30336 95.1882 8.9259C94.9407 9.95936 94.874 11.0279 94.9911 12.0841C95.1569 13.9952 95.8676 15.8186 97.0389 17.3377C98.2102 18.8569 99.7928 20.0081 101.599 20.6545C102.409 20.993 102.884 21.3273 102.657 22.3943C102.344 23.7484 102.04 25.1026 101.732 26.461C99.632 35.6656 97.5436 44.8745 95.4667 54.0877C95.4082 54.4985 95.2275 54.8822 94.9482 55.189C93.5793 56.2771 92.4291 57.6148 91.5586 59.1314C90.4493 61.1327 89.6817 63.3052 89.2875 65.5592C89.2118 66.2782 88.952 66.9655 88.5331 67.5548C88.1143 68.144 87.5505 68.6153 86.8963 68.9231C85.1094 69.8273 83.4682 70.9971 81.4841 72.2141C81.6164 69.8282 81.5906 67.4361 81.407 65.0535C81.256 64.3206 81.288 63.5618 81.5003 62.8442C81.7126 62.1267 82.0985 61.4725 82.624 60.9397C85.2375 58.3506 87.1005 55.1015 88.0148 51.538C88.2878 50.712 88.3627 49.8333 88.2333 48.9729C88.104 48.1126 87.774 47.2948 87.27 46.5856C86.7661 45.8764 86.1023 45.2957 85.3325 44.8905C84.5626 44.4853 83.7081 44.267 82.8382 44.2531C81.4298 44.2374 80.047 44.6304 78.8573 45.3844C74.7683 48.1767 70.7504 51.0715 66.8073 54.0663C64.4633 55.8318 62.2564 57.7858 59.9852 59.637C59.8873 59.5319 59.8025 59.4154 59.7324 59.2899C59.689 58.9744 59.604 58.6661 59.4796 58.3729C57.5812 55.4418 58.8968 53.3121 60.958 51.1223C63.1053 48.8714 64.2919 45.8727 64.2661 42.7619C64.3327 41.1769 63.8363 39.6194 62.8649 38.3653C62.3474 37.7286 61.7096 37.2001 60.988 36.8097C59.9629 36.2487 58.7908 36.0145 57.6289 36.1386C56.467 36.2627 55.3708 36.7391 54.4873 37.5039L53.2917 38.361C50.5621 40.315 47.7981 42.2177 45.1713 44.3089C41.3364 47.3705 37.5841 50.5341 33.9183 53.7963C32.2042 55.309 30.953 57.3744 29.1746 58.78C19.9014 66.1034 10.5297 73.294 1.1922 80.5317C0.871132 80.7232 0.575909 80.9551 0.313735 81.2216C0.286745 81.2606 0.263774 81.3023 0.245172 81.3459C0.0480521 81.8044 -0.119071 82.5629 0.112331 82.8414C0.169054 82.9019 0.23761 82.95 0.313735 82.9828C0.721934 83.1523 1.17623 83.175 1.5993 83.0471C2.15985 82.7563 2.67399 82.3837 3.12483 81.9415L29.2646 61.6811C29.7317 61.3168 30.2245 60.9869 30.7944 60.5755C30.9476 62.2831 31.5807 63.9125 32.6206 65.2757C33.6604 66.6388 35.0646 67.68 36.671 68.2791C38.2774 68.8782 40.0204 69.0107 41.6989 68.6614C43.3774 68.312 44.9229 67.4951 46.1569 66.3048C49.1565 63.4166 52.2547 60.6141 55.3101 57.773L56.4242 56.7274C58.2926 60.3827 58.104 61.3468 55.2329 63.648C37.5893 77.7663 19.9585 91.8875 2.34064 106.012C1.59073 106.611 0.108046 107.156 1.08079 108.433C2.05353 109.71 2.94914 108.394 3.69476 107.798C20.2242 94.5972 36.7423 81.3787 53.2489 68.1432C53.6774 67.8003 54.1273 67.4961 54.7487 67.0419V68.4303C54.6647 70.0345 55.0599 71.6275 55.8841 73.0064C56.7082 74.3853 57.924 75.4879 59.3767 76.1736C60.8007 76.897 62.4173 77.1503 63.9942 76.897C65.5711 76.6436 67.0271 75.8968 68.1528 74.7638C71.551 71.7642 74.9149 68.7045 78.2959 65.6792C78.5102 65.4863 78.7587 65.3406 79.153 65.0407C79.6367 67.9861 79.542 70.9975 78.8744 73.9068C78.7096 74.2936 78.4394 74.6262 78.0945 74.8667C75.3005 77.2807 72.4966 79.6847 69.6826 82.0787L28.4075 117.115C27.9243 117.437 27.4972 117.836 27.1434 118.297C27.0305 118.507 26.9672 118.741 26.9582 118.979C26.9493 119.217 26.9951 119.455 27.092 119.673C27.2856 119.818 27.5094 119.917 27.7468 119.964C27.9842 120.011 28.2291 120.004 28.4633 119.943C28.648 119.889 28.8181 119.794 28.9603 119.664C29.1746 119.493 29.3889 119.274 29.5817 119.099L59.4196 93.8158C60.8551 92.5988 62.3035 91.399 63.8162 90.1306C63.8928 90.3343 63.9544 90.5434 64.0005 90.7562C64.0861 92.4102 64.6556 94.0027 65.6383 95.3358C66.6211 96.669 67.9737 97.6842 69.5284 98.2553C71.0641 98.9225 72.7662 99.108 74.4096 98.7874C76.053 98.4669 77.5606 97.6552 78.733 96.4598C80.7213 94.6472 82.684 92.8045 84.6552 90.9705C85.9407 89.792 87.1834 88.6093 88.5376 87.3366C88.7898 88.2162 88.9944 89.1089 89.1503 90.0106C89.3473 92.1094 89.0578 94.2253 88.3042 96.1941C87.5506 98.1628 86.3532 99.9313 84.8051 101.362C79.8386 106.71 74.7606 111.942 69.7255 117.217C69.3955 117.56 68.9413 117.843 68.7613 118.25C68.5813 118.657 68.4657 119.454 68.6799 119.626L68.7399 119.664C69.1892 119.883 69.6945 119.959 70.1883 119.883C70.3267 119.854 70.45 119.777 70.5354 119.664C70.6554 119.54 70.7711 119.386 70.8868 119.27C74.9663 115.053 79.0672 110.858 83.1168 106.611C84.7513 104.955 86.288 103.205 87.7191 101.371C89.5851 99.3049 90.8224 96.7492 91.2855 94.0042C91.7486 91.2591 91.4181 88.439 90.3331 85.8754C90.2164 85.3037 90.3304 84.7092 90.6502 84.2213C90.9287 83.7413 91.2372 83.2742 91.5543 82.8114C92.569 81.494 93.4141 80.0544 94.0698 78.5262C95.3368 74.7758 97.2817 71.2898 99.8076 68.2417C100.969 66.7695 101.768 65.0448 102.14 63.207C102.512 61.3692 102.447 59.4696 101.95 57.6616C101.775 56.9741 101.775 56.2535 101.95 55.5661C104.119 48.8512 106.351 42.1577 108.562 35.4599L111.519 26.4867L112.432 23.7142C114.377 23.7142 116.211 23.6756 118.037 23.7142C119.554 23.757 120.017 23.0457 120 21.5715C119.91 15.658 119.944 9.74866 119.944 3.83936ZM43.9371 65.1435C42.9791 66.0304 41.7647 66.591 40.4683 66.745C39.1719 66.8989 37.86 66.6383 36.7208 66.0006C35.587 65.5162 34.631 64.6925 33.9842 63.6429C33.3373 62.5932 33.0314 61.369 33.1084 60.1384C33.2457 58.6271 33.8732 57.202 34.8953 56.0803C41.5388 49.7455 48.7368 44.019 56.4028 38.9695C56.8212 38.6737 57.2972 38.4693 57.7998 38.3696C58.1369 38.3074 58.4825 38.3074 58.8196 38.3696C59.2234 38.4482 59.6086 38.6023 59.9552 38.8238C60.656 39.2588 61.2224 39.8796 61.5916 40.6171C61.9607 41.3547 62.1182 42.1802 62.0464 43.0019C61.9576 45.1413 61.2092 47.2009 59.9038 48.8983C55.237 54.9207 49.878 60.3733 43.9371 65.1435ZM66.2202 73.4097C65.4752 74.1758 64.4966 74.6724 63.4385 74.8213C62.3803 74.9703 61.3027 74.7631 60.3752 74.2324C59.3988 73.7249 58.5678 72.977 57.9605 72.0593C57.3533 71.1416 56.9897 70.0844 56.9042 68.9874C56.8047 68.0401 56.9263 67.0828 57.2594 66.1905C57.5925 65.2982 58.1281 64.4954 58.8239 63.8451C65.3288 57.8454 72.3078 52.3811 79.6929 47.5056C79.9157 47.3642 80.1214 47.2228 80.3657 47.0771C81.0107 46.6114 81.7923 46.3734 82.5875 46.4005C83.3826 46.4277 84.1462 46.7185 84.758 47.2271C85.35 47.7285 85.7688 48.4038 85.955 49.157C86.1412 49.9101 86.0852 50.7028 85.795 51.4223C84.8607 54.5342 83.1364 57.351 80.7899 59.5985C76.0633 64.3208 71.1482 68.8674 66.2288 73.3925L66.2202 73.4097ZM91.5501 78.7276C88.8175 83.319 85.3967 87.4638 81.407 91.0176C79.8872 92.4831 78.3088 93.8844 76.6718 95.2214C75.8049 95.9408 74.7625 96.417 73.6512 96.6013C72.5399 96.7856 71.3996 96.6714 70.3469 96.2704C69.2942 95.8694 68.3669 95.1959 67.6599 94.3189C66.9529 93.4419 66.4915 92.3928 66.323 91.279C66.2543 90.6597 66.3091 90.0329 66.4842 89.435C66.6592 88.837 66.9511 88.2796 67.3429 87.7951C73.1743 81.4627 79.8387 75.9515 87.1534 71.4128C87.2424 71.3783 87.3366 71.3594 87.432 71.3571L87.8605 71.7856C86.6606 73.0712 85.4265 74.2967 84.2738 75.6123C83.9272 76.1208 83.6396 76.6671 83.4167 77.2407C84.0509 77.4292 84.7923 77.9263 85.3065 77.7506C87.3763 77.0564 89.4117 76.2508 91.5929 75.3937L93.3541 74.7081C92.6942 76.1651 92.2228 77.4935 91.5586 78.7105L91.5501 78.7276ZM97.4336 67.8646C95.8352 69.8996 93.8317 71.5806 91.5501 72.8012C90.8444 73.1954 90.1202 73.564 89.3775 73.9068C90.1402 70.9885 90.903 68.2846 91.5501 65.5506L91.5758 65.4392C92.2106 62.7546 93.418 60.2389 95.1153 58.0644C96.1566 56.6974 97.3265 57.2416 98.5221 57.5373C99.6277 57.8073 99.9062 58.6172 99.9533 59.6799C100.129 62.6162 99.2372 65.5171 97.4422 67.8475L97.4336 67.8646ZM107.461 31.4404C104.984 38.9395 102.477 46.4386 100.06 53.9463C99.6062 55.3561 98.9892 55.6132 97.6565 54.7648L104.011 26.5124L104.988 22.1758L110.131 23.3799L109.098 26.5124L107.461 31.4404Z" fill="#1F2626"/>
        </g>
        <defs>
            <clipPath id="clip0_1_2427">
                <rect width="120" height="120" fill="white"/>
            </clipPath>
        </defs>
    </g>

<!--socials-->
    <g id="telegram">
        <g id="SVGRepo_bgCarrier" stroke-width="0"/>

        <g id="SVGRepo_tracerCarrier" stroke-linecap="round" stroke-linejoin="round"/>

        <g id="SVGRepo_iconCarrier"> <path d="M12 4C10.4178 4 8.87103 4.46919 7.55544 5.34824C6.23985 6.22729 5.21447 7.47672 4.60897 8.93853C4.00347 10.4003 3.84504 12.0089 4.15372 13.5607C4.4624 15.1126 5.22433 16.538 6.34315 17.6569C7.46197 18.7757 8.88743 19.5376 10.4393 19.8463C11.9911 20.155 13.5997 19.9965 15.0615 19.391C16.5233 18.7855 17.7727 17.7602 18.6518 16.4446C19.5308 15.129 20 13.5823 20 12C20 9.87827 19.1571 7.84344 17.6569 6.34315C16.1566 4.84285 14.1217 4 12 4ZM15.93 9.48L14.62 15.67C14.52 16.11 14.26 16.21 13.89 16.01L11.89 14.53L10.89 15.46C10.8429 15.5215 10.7824 15.5715 10.7131 15.6062C10.6438 15.6408 10.5675 15.6592 10.49 15.66L10.63 13.66L14.33 10.31C14.5 10.17 14.33 10.09 14.09 10.23L9.55 13.08L7.55 12.46C7.12 12.33 7.11 12.03 7.64 11.83L15.35 8.83C15.73 8.72 16.05 8.94 15.93 9.48Z" fill="inherit"/> </g>
    </g>

    <g id="whatsapp">
        <g id="SVGRepo_bgCarrier" stroke-width="0"/>
        <g id="SVGRepo_tracerCarrier" stroke-linecap="round" stroke-linejoin="round"/>
        <g id="SVGRepo_iconCarrier"> <title>whatsapp [#128]</title> <desc>Created with Sketch.</desc> <defs> </defs> <g id="Page-1" stroke="none" stroke-width="1" fill="inherit" fill-rule="evenodd"> <g id="Dribbble-Light-Preview" transform="translate(-300.000000, -7599.000000)" fill="inherit"> <g id="icons" transform="translate(56.000000, 160.000000)"> <path d="M259.821,7453.12124 C259.58,7453.80344 258.622,7454.36761 257.858,7454.53266 C257.335,7454.64369 256.653,7454.73172 254.355,7453.77943 C251.774,7452.71011 248.19,7448.90097 248.19,7446.36621 C248.19,7445.07582 248.934,7443.57337 250.235,7443.57337 C250.861,7443.57337 250.999,7443.58538 251.205,7444.07952 C251.446,7444.6617 252.034,7446.09613 252.104,7446.24317 C252.393,7446.84635 251.81,7447.19946 251.387,7447.72462 C251.252,7447.88266 251.099,7448.05372 251.27,7448.3478 C251.44,7448.63589 252.028,7449.59418 252.892,7450.36341 C254.008,7451.35771 254.913,7451.6748 255.237,7451.80984 C255.478,7451.90987 255.766,7451.88687 255.942,7451.69881 C256.165,7451.45774 256.442,7451.05762 256.724,7450.6635 C256.923,7450.38141 257.176,7450.3464 257.441,7450.44643 C257.62,7450.50845 259.895,7451.56477 259.991,7451.73382 C260.062,7451.85686 260.062,7452.43903 259.821,7453.12124 M254.002,7439 L253.997,7439 L253.997,7439 C248.484,7439 244,7443.48535 244,7449 C244,7451.18666 244.705,7453.21526 245.904,7454.86076 L244.658,7458.57687 L248.501,7457.3485 C250.082,7458.39482 251.969,7459 254.002,7459 C259.515,7459 264,7454.51465 264,7449 C264,7443.48535 259.515,7439 254.002,7439" id="whatsapp-[#128]"> </path> </g> </g> </g> </g>
    </g>

    <g id="email">
        <path id="Vector" d="M0.13 4.14C0.39 2.96 1.04 1.91 1.97 1.16C2.9 0.41 4.06 0 5.25 0L36.75 0C37.93 0 39.09 0.41 40.02 1.16C40.95 1.91 41.6 2.96 41.86 4.14L21 17.1L0.13 4.14ZM0 7.19L0 26.13L15.23 16.64L0 7.19ZM17.74 18.21L0.5 28.95C0.92 29.86 1.6 30.63 2.44 31.17C3.28 31.71 4.25 32 5.25 32L36.75 32C37.74 32 38.71 31.71 39.55 31.17C40.39 30.63 41.07 29.86 41.49 28.94L24.24 18.21L21 20.22L17.74 18.21L17.74 18.21ZM26.76 16.65L42 26.13L42 7.19L26.76 16.64L26.76 16.65Z" fill="inherit" fill-opacity="1.000000" fill-rule="evenodd"/>
    </g>

<!--quote-->
    <g id="quote">
        <path d="M13.5417 20.8333C13.0771 20.8333 12.6312 20.9042 12.1875 20.9688C12.3312 20.4854 12.4792 19.9938 12.7167 19.5521C12.9542 18.9104 13.325 18.3542 13.6937 17.7938C14.0021 17.1875 14.5458 16.7771 14.9458 16.2583C15.3646 15.7542 15.9354 15.4188 16.3875 15C16.8312 14.5625 17.4125 14.3438 17.875 14.0354C18.3583 13.7583 18.7792 13.4521 19.2292 13.3063L20.3521 12.8438L21.3396 12.4333L20.3292 8.39584L19.0854 8.69584C18.6875 8.79584 18.2021 8.9125 17.65 9.05209C17.0854 9.15625 16.4833 9.44167 15.8125 9.70209C15.15 9.99792 14.3833 10.1979 13.6708 10.6729C12.9542 11.1271 12.1271 11.5063 11.3979 12.1146C10.6917 12.7417 9.83958 13.2854 9.21041 14.0833C8.52291 14.8292 7.84375 15.6125 7.31666 16.5042C6.70625 17.3542 6.29166 18.2875 5.85416 19.2104C5.45833 20.1333 5.13958 21.0771 4.87916 21.9938C4.38541 23.8313 4.16458 25.5771 4.07916 27.0708C4.00833 28.5667 4.05 29.8104 4.1375 30.7104C4.16875 31.1354 4.22708 31.5479 4.26875 31.8333L4.32083 32.1833L4.375 32.1708C4.74554 33.9017 5.59855 35.4924 6.83534 36.7587C8.07213 38.0251 9.64217 38.9154 11.3638 39.3267C13.0855 39.738 14.8884 39.6535 16.5641 39.083C18.2397 38.5124 19.7196 37.4792 20.8325 36.1027C21.9454 34.7262 22.6459 33.0628 22.853 31.3048C23.06 29.5468 22.7651 27.7662 22.0024 26.1688C21.2396 24.5714 20.0403 23.2226 18.543 22.2784C17.0458 21.3342 15.3118 20.8332 13.5417 20.8333ZM36.4583 20.8333C35.9937 20.8333 35.5479 20.9042 35.1042 20.9688C35.2479 20.4854 35.3958 19.9938 35.6333 19.5521C35.8708 18.9104 36.2417 18.3542 36.6104 17.7938C36.9188 17.1875 37.4625 16.7771 37.8625 16.2583C38.2812 15.7542 38.8521 15.4188 39.3042 15C39.7479 14.5625 40.3292 14.3438 40.7917 14.0354C41.275 13.7583 41.6958 13.4521 42.1458 13.3063L43.2687 12.8438L44.2562 12.4333L43.2458 8.39584L42.0021 8.69584C41.6042 8.79584 41.1187 8.9125 40.5667 9.05209C40.0021 9.15625 39.4 9.44167 38.7292 9.70209C38.0688 10 37.3 10.1979 36.5875 10.675C35.8708 11.1292 35.0438 11.5083 34.3146 12.1167C33.6083 12.7438 32.7562 13.2875 32.1271 14.0833C31.4396 14.8292 30.7604 15.6125 30.2333 16.5042C29.6229 17.3542 29.2083 18.2875 28.7708 19.2104C28.375 20.1333 28.0562 21.0771 27.7958 21.9938C27.3021 23.8313 27.0812 25.5771 26.9958 27.0708C26.925 28.5667 26.9667 29.8104 27.0542 30.7104C27.0854 31.1354 27.1437 31.5479 27.1854 31.8333L27.2375 32.1833L27.2917 32.1708C27.6622 33.9017 28.5152 35.4924 29.752 36.7587C30.9888 38.0251 32.5588 38.9154 34.2805 39.3267C36.0022 39.738 37.8051 39.6535 39.4807 39.083C41.1564 38.5124 42.6363 37.4792 43.7492 36.1027C44.8621 34.7262 45.5626 33.0628 45.7696 31.3048C45.9766 29.5468 45.6817 27.7662 44.919 26.1688C44.1563 24.5714 42.957 23.2226 41.4597 22.2784C39.9624 21.3342 38.2284 20.8332 36.4583 20.8333Z" fill="#FDC435"/>
    </g>

<!--logo-->
    <g id="logo">
        <g><path d="M47,24a1,1,0,0,0,1-1V5a5.006,5.006,0,0,0-5-5H5A5.006,5.006,0,0,0,0,5V33a5.006,5.006,0,0,0,5,5H16v4.465l-2.555,1.7A1,1,0,0,0,13,45v1a2,2,0,0,0,2,2H33a2,2,0,0,0,2-2V45a1,1,0,0,0-.445-.832L32,42.465V41a1,1,0,0,0-2,0v2a1,1,0,0,0,.445.832L33,45.535V46H15v-.465l2.555-1.7A1,1,0,0,0,18,43V38H43a5.006,5.006,0,0,0,5-5V28a1,1,0,0,0-1-1H6a1,1,0,0,0,0,2H46v4a3,3,0,0,1-3,3H5a3,3,0,0,1-3-3V5A3,3,0,0,1,5,2H43a3,3,0,0,1,3,3V23A1,1,0,0,0,47,24Z" fill="#25282B"/><path d="M19.707,7.293a1,1,0,0,0-1.414,0l-6,6a1,1,0,0,0,0,1.414l6,6a1,1,0,0,0,1.414-1.414L14.414,14l5.293-5.293A1,1,0,0,0,19.707,7.293Z" fill="#25282B"/><path d="M28.293,20.707a1,1,0,0,0,1.414,0l6-6a1,1,0,0,0,0-1.414l-6-6a1,1,0,1,0-1.414,1.414L33.586,14l-5.293,5.293A1,1,0,0,0,28.293,20.707Z" fill="#25282B"/>
        </g>
    </g>

    <!--themes-->
    <g id="theme">
        <path clip-rule="evenodd" d="M10.9754 1.27452C11.5522 0.734726 12.4487 0.734725 13.0255 1.27452L15.351 3.45115C15.4395 3.53396 15.5551 3.58182 15.6762 3.58582L18.8597 3.69115C19.6492 3.71727 20.2832 4.35122 20.3093 5.14073L20.4146 8.32428C20.4186 8.44539 20.4665 8.56094 20.5493 8.64941L22.7259 10.975C23.2657 11.5517 23.2657 12.4483 22.7259 13.025L20.5493 15.3506C20.4665 15.4391 20.4186 15.5546 20.4146 15.6757L20.3093 18.8593C20.2832 19.6488 19.6492 20.2827 18.8597 20.3089L15.6762 20.4142C15.5551 20.4182 15.4395 20.466 15.351 20.5489L13.0255 22.7255C12.4487 23.2653 11.5522 23.2653 10.9754 22.7255L8.64985 20.5489C8.56138 20.466 8.44584 20.4182 8.32472 20.4142L5.14117 20.3089C4.35167 20.2827 3.71772 19.6488 3.6916 18.8593L3.58627 15.6757C3.58226 15.5546 3.5344 15.4391 3.45159 15.3506L1.27496 13.025C0.735169 12.4483 0.735168 11.5517 1.27496 10.975L3.45159 8.64941C3.5344 8.56094 3.58226 8.44539 3.58627 8.32428L3.6916 5.14073C3.71772 4.35122 4.35167 3.71727 5.14117 3.69115L8.32472 3.58582C8.44584 3.58182 8.56138 3.53396 8.64985 3.45115L10.9754 1.27452ZM12.3421 2.00462C12.1499 1.82469 11.851 1.82469 11.6588 2.00462L9.33319 4.18125C9.06776 4.42968 8.72114 4.57325 8.35779 4.58528L5.17424 4.69061C4.91107 4.69931 4.69976 4.91063 4.69105 5.1738L4.58572 8.35734C4.5737 8.7207 4.43012 9.06732 4.18169 9.33275L2.00507 11.6583C1.82513 11.8506 1.82513 12.1494 2.00507 12.3417L4.18169 14.6673C4.43012 14.9327 4.5737 15.2793 4.58572 15.6427L4.69105 18.8262C4.69976 19.0894 4.91107 19.3007 5.17424 19.3094L8.35779 19.4147C8.72114 19.4268 9.06776 19.5703 9.33319 19.8188L11.6588 21.9954C11.851 22.1753 12.1499 22.1753 12.3421 21.9954L14.6677 19.8188C14.9331 19.5703 15.2798 19.4268 15.6431 19.4147L18.8267 19.3094C19.0898 19.3007 19.3011 19.0894 19.3098 18.8262L19.4152 15.6427C19.4272 15.2793 19.5708 14.9327 19.8192 14.6673L21.9958 12.3417C22.1758 12.1494 22.1758 11.8506 21.9958 11.6583L19.8192 9.33275C19.5708 9.06732 19.4272 8.7207 19.4152 8.35734L19.3098 5.1738C19.3011 4.91063 19.0898 4.69931 18.8267 4.69061L15.6431 4.58528C15.2798 4.57325 14.9331 4.42968 14.6677 4.18125L12.3421 2.00462Z" fill="#25282B" fill-rule="evenodd"/><path clip-rule="evenodd" d="M10.1991 6.65463C11.8911 7.82768 13 9.78396 13 12C13 14.216 11.8911 16.1723 10.1991 17.3454C10.6159 17.4464 11.0515 17.5 11.5 17.5C14.5376 17.5 17 15.0376 17 12C17 8.96243 14.5376 6.5 11.5 6.5C11.0515 6.5 10.6159 6.55359 10.1991 6.65463ZM8.79144 6.08962C9.6166 5.7109 10.5344 5.5 11.5 5.5C15.0899 5.5 18 8.41015 18 12C18 15.5899 15.0899 18.5 11.5 18.5C10.5344 18.5 9.6166 18.2891 8.79144 17.9104C8.61384 17.8289 8.5 17.6514 8.5 17.456C8.5 17.2605 8.61384 17.083 8.79144 17.0015C10.686 16.132 12 14.2189 12 12C12 9.78106 10.686 7.86799 8.79144 6.99847C8.61384 6.91695 8.5 6.73945 8.5 6.54404C8.5 6.34863 8.61384 6.17113 8.79144 6.08962Z" fill="#25282B" fill-rule="evenodd"/>
    </g>

    <!--popup-->
    <g id="success">
        <path fill="#ddffe7" fill-rule="evenodd"
              d="M5.85725,10.5565 L2.29325,6.9925 C1.90225,6.6015 1.90225,5.9695 2.29325,5.5785 C2.68425,5.1875 3.31625,5.1875 3.70725,5.5785 L5.85725,7.7285 L10.29325,3.2925 C10.68425,2.9025 11.31625,2.9025 11.70725,3.2925 C12.09825,3.6835 12.09825,4.3165 11.70725,4.7065 L5.85725,10.5565 Z"/>
    </g>

    <g id="error">
        <defs><style>.cls-1{fill:#ffecf4;opacity:0;}.cls-2{fill:#ffecf4;}</style></defs><title>close</title><g
            id="Layer_2"><g id="close"><g id="close-2"><rect class="cls-1" width="24" height="24"
                                                             transform="translate(24 24) rotate(180)"/><path
            class="cls-2"
            d="M13.41,12l4.3-4.29a1,1,0,1,0-1.42-1.42L12,10.59,7.71,6.29A1,1,0,0,0,6.29,7.71L10.59,12l-4.3,4.29a1,1,0,0,0,0,1.42,1,1,0,0,0,1.42,0L12,13.41l4.29,4.3a1,1,0,0,0,1.42,0,1,1,0,0,0,0-1.42Z"/></g></g></g>
    </g>
</svg>




