<svg width="1440.000000" height="344.000000" viewBox="0 0 1440 344" fill="none" xmlns="http://www.w3.org/2000/svg" xmlns:xlink="http://www.w3.org/1999/xlink">
	<desc>
			Created with Pixso.
	</desc>
	<defs/>
	<path id="Vector" d="M0 258L60 229.33C120 200.66 240 143.33 360 150.5C480 157.66 600 229.33 720 229.33C840 229.33 960 157.66 1080 107.5C1200 57.33 1320 28.66 1380 14.33L1440 0L1440 344L1380 344C1320 344 1200 344 1080 344C960 344 840 344 720 344C600 344 480 344 360 344C240 344 120 344 60 344L0 344L0 258Z" fill="#FDC435" fill-opacity="1.000000" fill-rule="evenodd"/>
</svg>
